<svg width="25" height="24" viewBox="0 0 25 24" fill="none" xmlns="http://www.w3.org/2000/svg">
<g clip-path="url(#clip0_1_145)">
<path d="M7.20001 11.5C6.60906 11.5 6.0239 11.3836 5.47794 11.1575C4.93197 10.9313 4.4359 10.5998 4.01803 10.182C3.60017 9.76412 3.2687 9.26804 3.04255 8.72208C2.81641 8.17611 2.70001 7.59095 2.70001 7C2.70001 6.40905 2.81641 5.82389 3.04255 5.27792C3.2687 4.73196 3.60017 4.23588 4.01803 3.81802C4.4359 3.40016 4.93197 3.06869 5.47794 2.84254C6.0239 2.6164 6.60906 2.5 7.20001 2.5C8.39349 2.5 9.53808 2.97411 10.382 3.81802C11.2259 4.66193 11.7 5.80653 11.7 7C11.7 8.19347 11.2259 9.33807 10.382 10.182C9.53808 11.0259 8.39349 11.5 7.20001 11.5ZM7.70001 21.5C6.50654 21.5 5.36195 21.0259 4.51803 20.182C3.67412 19.3381 3.20001 18.1935 3.20001 17C3.20001 15.8065 3.67412 14.6619 4.51803 13.818C5.36195 12.9741 6.50654 12.5 7.70001 12.5C8.89349 12.5 10.0381 12.9741 10.882 13.818C11.7259 14.6619 12.2 15.8065 12.2 17C12.2 18.1935 11.7259 19.3381 10.882 20.182C10.0381 21.0259 8.89349 21.5 7.70001 21.5ZM17.7 11.5C17.1091 11.5 16.5239 11.3836 15.9779 11.1575C15.432 10.9313 14.9359 10.5998 14.518 10.182C14.1002 9.76412 13.7687 9.26804 13.5426 8.72208C13.3164 8.17611 13.2 7.59095 13.2 7C13.2 6.40905 13.3164 5.82389 13.5426 5.27792C13.7687 4.73196 14.1002 4.23588 14.518 3.81802C14.9359 3.40016 15.432 3.06869 15.9779 2.84254C16.5239 2.6164 17.1091 2.5 17.7 2.5C18.8935 2.5 20.0381 2.97411 20.882 3.81802C21.7259 4.66193 22.2 5.80653 22.2 7C22.2 8.19347 21.7259 9.33807 20.882 10.182C20.0381 11.0259 18.8935 11.5 17.7 11.5ZM17.7 21.5C16.5065 21.5 15.3619 21.0259 14.518 20.182C13.6741 19.3381 13.2 18.1935 13.2 17C13.2 15.8065 13.6741 14.6619 14.518 13.818C15.3619 12.9741 16.5065 12.5 17.7 12.5C18.8935 12.5 20.0381 12.9741 20.882 13.818C21.7259 14.6619 22.2 15.8065 22.2 17C22.2 18.1935 21.7259 19.3381 20.882 20.182C20.0381 21.0259 18.8935 21.5 17.7 21.5ZM7.20001 9.5C7.86305 9.5 8.49894 9.23661 8.96778 8.76777C9.43662 8.29893 9.70001 7.66304 9.70001 7C9.70001 6.33696 9.43662 5.70107 8.96778 5.23223C8.49894 4.76339 7.86305 4.5 7.20001 4.5C6.53697 4.5 5.90109 4.76339 5.43225 5.23223C4.9634 5.70107 4.70001 6.33696 4.70001 7C4.70001 7.66304 4.9634 8.29893 5.43225 8.76777C5.90109 9.23661 6.53697 9.5 7.20001 9.5ZM7.70001 19.5C8.36305 19.5 8.99894 19.2366 9.46778 18.7678C9.93662 18.2989 10.2 17.663 10.2 17C10.2 16.337 9.93662 15.7011 9.46778 15.2322C8.99894 14.7634 8.36305 14.5 7.70001 14.5C7.03697 14.5 6.40109 14.7634 5.93225 15.2322C5.4634 15.7011 5.20001 16.337 5.20001 17C5.20001 17.663 5.4634 18.2989 5.93225 18.7678C6.40109 19.2366 7.03697 19.5 7.70001 19.5ZM17.7 9.5C18.3631 9.5 18.9989 9.23661 19.4678 8.76777C19.9366 8.29893 20.2 7.66304 20.2 7C20.2 6.33696 19.9366 5.70107 19.4678 5.23223C18.9989 4.76339 18.3631 4.5 17.7 4.5C17.037 4.5 16.4011 4.76339 15.9322 5.23223C15.4634 5.70107 15.2 6.33696 15.2 7C15.2 7.66304 15.4634 8.29893 15.9322 8.76777C16.4011 9.23661 17.037 9.5 17.7 9.5ZM17.7 19.5C18.3631 19.5 18.9989 19.2366 19.4678 18.7678C19.9366 18.2989 20.2 17.663 20.2 17C20.2 16.337 19.9366 15.7011 19.4678 15.2322C18.9989 14.7634 18.3631 14.5 17.7 14.5C17.037 14.5 16.4011 14.7634 15.9322 15.2322C15.4634 15.7011 15.2 16.337 15.2 17C15.2 17.663 15.4634 18.2989 15.9322 18.7678C16.4011 19.2366 17.037 19.5 17.7 19.5Z" fill="#389ED9"/>
</g>
<defs>
<clipPath id="clip0_1_145">
<rect width="24" height="24" fill="white" transform="translate(0.700012)"/>
</clipPath>
</defs>
</svg>
