<svg width="20" height="20" viewBox="0 0 20 20" fill="none" xmlns="http://www.w3.org/2000/svg">
<rect y="-0.0012207" width="20" height="20" rx="10" fill="white"/>
<path d="M11.3535 6.81683L14.182 9.64533C14.2757 9.73909 14.3284 9.86625 14.3284 9.99883C14.3284 10.1314 14.2757 10.2586 14.182 10.3523L11.3535 13.1808C11.2592 13.2719 11.1329 13.3223 11.0018 13.3212C10.8707 13.32 10.7453 13.2674 10.6526 13.1747C10.5599 13.082 10.5073 12.9566 10.5062 12.8255C10.505 12.6944 10.5554 12.5681 10.6465 12.4738L12.6215 10.4988H6C5.86739 10.4988 5.74021 10.4462 5.64645 10.3524C5.55268 10.2586 5.5 10.1314 5.5 9.99883C5.5 9.86622 5.55268 9.73904 5.64645 9.64528C5.74021 9.55151 5.86739 9.49883 6 9.49883H12.6215L10.6465 7.52383C10.5987 7.47771 10.5607 7.42253 10.5344 7.36153C10.5082 7.30053 10.4945 7.23492 10.4939 7.16853C10.4933 7.10214 10.5059 7.0363 10.5311 6.97485C10.5562 6.9134 10.5934 6.85758 10.6403 6.81063C10.6872 6.76368 10.7431 6.72656 10.8045 6.70142C10.866 6.67628 10.9318 6.66363 10.9982 6.6642C11.0646 6.66478 11.1302 6.67857 11.1912 6.70478C11.2522 6.73098 11.3074 6.76907 11.3535 6.81683Z" fill="#389ED9"/>
</svg>
