<svg width="21" height="20" viewBox="0 0 21 20" fill="none" xmlns="http://www.w3.org/2000/svg">
<path d="M15.5 2H19.5C19.7652 2 20.0196 2.10536 20.2071 2.29289C20.3946 2.48043 20.5 2.73478 20.5 3V19C20.5 19.2652 20.3946 19.5196 20.2071 19.7071C20.0196 19.8946 19.7652 20 19.5 20H1.5C1.23478 20 0.98043 19.8946 0.792893 19.7071C0.605357 19.5196 0.5 19.2652 0.5 19V3C0.5 2.73478 0.605357 2.48043 0.792893 2.29289C0.98043 2.10536 1.23478 2 1.5 2H5.5V0H7.5V2H13.5V0H15.5V2ZM18.5 10H2.5V18H18.5V10ZM13.5 4H7.5V6H5.5V4H2.5V8H18.5V4H15.5V6H13.5V4ZM4.5 12H6.5V14H4.5V12ZM9.5 12H11.5V14H9.5V12ZM14.5 12H16.5V14H14.5V12Z" fill="#636363"/>
</svg>
