<svg width="24" height="25" viewBox="0 0 24 25" fill="none" xmlns="http://www.w3.org/2000/svg">
<path d="M3 3.75H21C21.2652 3.75 21.5196 3.85536 21.7071 4.04289C21.8946 4.23043 22 4.48478 22 4.75V20.75C22 21.0152 21.8946 21.2696 21.7071 21.4571C21.5196 21.6446 21.2652 21.75 21 21.75H3C2.73478 21.75 2.48043 21.6446 2.29289 21.4571C2.10536 21.2696 2 21.0152 2 20.75V4.75C2 4.48478 2.10536 4.23043 2.29289 4.04289C2.48043 3.85536 2.73478 3.75 3 3.75ZM20 7.988L12.072 15.088L4 7.966V19.75H20V7.988ZM4.511 5.75L12.061 12.412L19.502 5.75H4.511Z" fill="#28292B"/>
</svg>
