<svg width="22" height="24" viewBox="0 0 22 24" fill="none" xmlns="http://www.w3.org/2000/svg">
<path d="M15.7669 7.19034C16.1212 6.51108 16.3219 5.73952 16.3219 4.92188C16.3219 2.20795 14.1139 0 11.4 0C8.68607 0 6.47812 2.20795 6.47812 4.92188C6.47812 5.73952 6.67879 6.51108 7.03307 7.19034C3.56732 7.91016 0.853119 11.0585 0.853119 14.8594V15.8501C0.853119 18.1195 1.7369 20.2531 3.34167 21.8579C3.81623 22.3324 4.44717 22.5938 5.11818 22.5938C6.21637 22.5937 7.14998 21.9146 7.49207 20.8765C8.43867 21.7245 9.69281 22.7478 10.9394 23.8282C11.0716 23.9427 11.2357 24 11.3999 24C11.5641 24 11.7283 23.9427 11.8604 23.8282C13.1176 22.7386 14.3602 21.726 15.3092 20.8762C15.6503 21.9143 16.5834 22.5937 17.6818 22.5938C18.3528 22.5938 18.9837 22.3324 19.4583 21.8579C21.0631 20.2531 21.9469 18.1195 21.9469 15.8501V14.8594C21.9469 11.0598 19.2343 7.91053 15.7669 7.19034ZM11.4 1.40625C13.3385 1.40625 14.9156 2.98336 14.9156 4.92188C14.9156 6.86039 13.3385 8.4375 11.4 8.4375C9.46148 8.4375 7.88437 6.86039 7.88437 4.92188C7.88437 2.98336 9.46148 1.40625 11.4 1.40625ZM15.8249 18.3895C15.8245 18.3899 15.8242 18.3902 15.8238 18.3906C15.8226 18.392 15.8215 18.3934 15.8204 18.3947C15.5791 18.6722 15.2968 18.9643 14.9686 19.2777C14.0263 20.1778 12.812 21.1594 11.4 22.3689C8.04313 19.4939 5.81554 17.9159 5.81554 15.8111C5.81554 14.2665 6.86479 13.1016 8.25618 13.1016C8.99615 13.1016 9.62667 13.4509 10.1303 14.1397C10.5488 14.712 10.7213 15.3073 10.7223 15.3107C10.8067 15.6153 11.0835 15.8274 11.3996 15.8274C11.7157 15.8274 11.9925 15.6178 12.0769 15.3132C12.0786 15.3073 12.2511 14.712 12.6696 14.1397C13.1732 13.4509 13.8037 13.1016 14.5437 13.1016C15.9352 13.1016 16.9844 14.2665 16.9844 15.8111C16.9844 16.6678 16.6467 17.4428 15.8249 18.3895ZM20.5406 15.8501C20.5406 17.7439 19.8031 19.5244 18.4641 20.8635C18.255 21.0724 17.9773 21.1875 17.6818 21.1875C16.7173 21.1875 16.2698 20.0874 16.8514 19.3555C17.7238 18.3627 18.3907 17.2281 18.3907 15.8111C18.3907 13.568 16.793 11.6953 14.5438 11.6953C13.3304 11.6953 12.2792 12.2681 11.5041 13.3516C11.468 13.4021 11.4333 13.4526 11.4 13.5029C11.3667 13.4526 11.332 13.4021 11.2959 13.3516C10.5208 12.2681 9.46964 11.6953 8.25618 11.6953C6.00613 11.6953 4.40929 13.5688 4.40929 15.8111C4.40929 17.1777 5.02931 18.2953 5.93024 19.3298C6.54393 20.0627 6.09267 21.1875 5.11818 21.1875C4.82268 21.1875 4.54495 21.0724 4.33593 20.8635C2.99685 19.5244 2.25937 17.7439 2.25937 15.8501V14.8594C2.25937 11.5779 4.80224 8.77364 7.98829 8.46591C8.87371 9.31856 10.0766 9.84375 11.4 9.84375C12.7234 9.84375 13.9263 9.31856 14.8117 8.46591C17.9977 8.77364 20.5406 11.5779 20.5406 14.8594V15.8501Z" fill="#636363"/>
</svg>
