<svg width="20" height="15" viewBox="0 0 20 15" fill="none" xmlns="http://www.w3.org/2000/svg">
<path d="M4.34297 0.438001C4.43595 0.530874 4.50971 0.641162 4.56003 0.76256C4.61036 0.883958 4.63626 1.01409 4.63626 1.1455C4.63626 1.27692 4.61036 1.40704 4.56003 1.52844C4.50971 1.64984 4.43595 1.76013 4.34297 1.853C2.84241 3.35382 1.99943 5.38921 1.99943 7.5115C1.99943 9.6338 2.84241 11.6692 4.34297 13.17C4.43582 13.2629 4.50945 13.3732 4.55968 13.4946C4.6099 13.6159 4.63572 13.746 4.63568 13.8774C4.63563 14.0087 4.60971 14.1388 4.55941 14.2601C4.5091 14.3814 4.43538 14.4917 4.34247 14.5845C4.24956 14.6773 4.13928 14.751 4.01791 14.8012C3.89654 14.8514 3.76647 14.8773 3.63512 14.8772C3.50377 14.8772 3.37372 14.8512 3.25239 14.8009C3.13105 14.7506 3.02082 14.6769 2.92797 14.584C-0.978026 10.678 -0.978026 4.344 2.92797 0.438001C3.02085 0.345025 3.13114 0.271265 3.25253 0.220941C3.37393 0.170617 3.50406 0.144714 3.63547 0.144714C3.76689 0.144714 3.89702 0.170617 4.01841 0.220941C4.13981 0.271265 4.2501 0.345025 4.34297 0.438001ZM17.074 0.438001C20.98 4.345 20.98 10.678 17.074 14.584C16.8854 14.7662 16.6328 14.867 16.3706 14.8647C16.1084 14.8624 15.8576 14.7572 15.6722 14.5718C15.4867 14.3864 15.3816 14.1356 15.3793 13.8734C15.377 13.6112 15.4778 13.3586 15.66 13.17C17.1605 11.6692 18.0035 9.6338 18.0035 7.5115C18.0035 5.38921 17.1605 3.35382 15.66 1.853C15.4723 1.66549 15.3669 1.41112 15.3668 1.14585C15.3667 0.880584 15.472 0.626142 15.6595 0.438501C15.847 0.25086 16.1013 0.145392 16.3666 0.145298C16.6319 0.145205 16.8863 0.250493 17.074 0.438001ZM7.30997 3.312C7.49745 3.49953 7.60276 3.75384 7.60276 4.019C7.60276 4.28417 7.49745 4.53847 7.30997 4.726C6.94593 5.09001 6.65715 5.52217 6.46012 5.99779C6.2631 6.47341 6.16169 6.98319 6.16169 7.498C6.16169 8.01282 6.2631 8.52259 6.46012 8.99821C6.65715 9.47383 6.94593 9.90599 7.30997 10.27C7.40548 10.3622 7.48167 10.4726 7.53408 10.5946C7.58648 10.7166 7.61407 10.8478 7.61522 10.9806C7.61638 11.1134 7.59108 11.2451 7.5408 11.368C7.49052 11.4909 7.41626 11.6025 7.32237 11.6964C7.22848 11.7903 7.11682 11.8645 6.99393 11.9148C6.87103 11.9651 6.73935 11.9904 6.60657 11.9893C6.47379 11.9881 6.34257 11.9605 6.22057 11.9081C6.09857 11.8557 5.98822 11.7795 5.89597 11.684C4.7858 10.5738 4.16212 9.06805 4.16212 7.498C4.16212 5.92795 4.7858 4.42221 5.89597 3.312C6.0835 3.12453 6.33781 3.01921 6.60297 3.01921C6.86814 3.01921 7.12245 3.12453 7.30997 3.312ZM14.269 3.312C15.3791 4.42221 16.0028 5.92795 16.0028 7.498C16.0028 9.06805 15.3791 10.5738 14.269 11.684C14.1761 11.7769 14.0659 11.8506 13.9446 11.9009C13.8232 11.9512 13.6932 11.9772 13.5618 11.9772C13.4305 11.9773 13.3004 11.9514 13.179 11.9012C13.0577 11.851 12.9474 11.7773 12.8545 11.6845C12.7616 11.5917 12.6879 11.4814 12.6375 11.3601C12.5872 11.2388 12.5613 11.1087 12.5613 10.9774C12.5612 10.846 12.587 10.7159 12.6373 10.5946C12.6875 10.4732 12.7611 10.3629 12.854 10.27C13.218 9.90599 13.5068 9.47383 13.7038 8.99821C13.9009 8.52259 14.0023 8.01282 14.0023 7.498C14.0023 6.98319 13.9009 6.47341 13.7038 5.99779C13.5068 5.52217 13.218 5.09001 12.854 4.726C12.6665 4.53836 12.5612 4.28392 12.5613 4.01865C12.5614 3.75338 12.6668 3.49901 12.8545 3.3115C13.0421 3.12399 13.2966 3.0187 13.5618 3.0188C13.8271 3.01889 14.0815 3.12436 14.269 3.312ZM10.082 6.082C10.279 6.082 10.474 6.1208 10.656 6.19618C10.838 6.27156 11.0033 6.38205 11.1426 6.52134C11.2819 6.66063 11.3924 6.82599 11.4678 7.00798C11.5432 7.18996 11.582 7.38502 11.582 7.582C11.582 7.77898 11.5432 7.97404 11.4678 8.15603C11.3924 8.33801 11.2819 8.50337 11.1426 8.64266C11.0033 8.78195 10.838 8.89244 10.656 8.96782C10.474 9.0432 10.279 9.082 10.082 9.082C9.68415 9.082 9.30262 8.92397 9.02131 8.64266C8.74001 8.36136 8.58197 7.97983 8.58197 7.582C8.58197 7.18418 8.74001 6.80264 9.02131 6.52134C9.30262 6.24004 9.68415 6.082 10.082 6.082Z" fill="white"/>
</svg>
