<svg width="20" height="16" viewBox="0 0 20 16" fill="none" xmlns="http://www.w3.org/2000/svg">
<path d="M4.343 0.938001C4.43598 1.03087 4.50974 1.14116 4.56006 1.26256C4.61039 1.38396 4.63629 1.51409 4.63629 1.6455C4.63629 1.77692 4.61039 1.90704 4.56006 2.02844C4.50974 2.14984 4.43598 2.26013 4.343 2.353C2.84244 3.85382 1.99946 5.88921 1.99946 8.0115C1.99946 10.1338 2.84244 12.1692 4.343 13.67C4.43585 13.7629 4.50948 13.8732 4.55971 13.9946C4.60993 14.1159 4.63575 14.246 4.63571 14.3774C4.63566 14.5087 4.60974 14.6388 4.55944 14.7601C4.50913 14.8814 4.43542 14.9917 4.3425 15.0845C4.24959 15.1773 4.13931 15.251 4.01794 15.3012C3.89657 15.3514 3.7665 15.3773 3.63515 15.3772C3.5038 15.3772 3.37375 15.3512 3.25242 15.3009C3.13108 15.2506 3.02085 15.1769 2.928 15.084C-0.977995 11.178 -0.977995 4.844 2.928 0.938001C3.02088 0.845025 3.13117 0.771265 3.25256 0.720941C3.37396 0.670617 3.50409 0.644714 3.6355 0.644714C3.76692 0.644714 3.89705 0.670617 4.01845 0.720941C4.13984 0.771265 4.25013 0.845025 4.343 0.938001ZM17.074 0.938001C20.98 4.845 20.98 11.178 17.074 15.084C16.8854 15.2662 16.6328 15.367 16.3706 15.3647C16.1084 15.3624 15.8576 15.2572 15.6722 15.0718C15.4868 14.8864 15.3816 14.6356 15.3793 14.3734C15.3771 14.1112 15.4778 13.8586 15.66 13.67C17.1606 12.1692 18.0036 10.1338 18.0036 8.0115C18.0036 5.88921 17.1606 3.85382 15.66 2.353C15.4724 2.16549 15.3669 1.91112 15.3668 1.64585C15.3667 1.38058 15.472 1.12614 15.6595 0.938501C15.847 0.75086 16.1014 0.645392 16.3666 0.645298C16.6319 0.645205 16.8864 0.750493 17.074 0.938001ZM7.31001 3.812C7.49748 3.99953 7.60279 4.25384 7.60279 4.519C7.60279 4.78417 7.49748 5.03847 7.31001 5.226C6.94596 5.59001 6.65718 6.02217 6.46015 6.49779C6.26313 6.97341 6.16172 7.48319 6.16172 7.998C6.16172 8.51282 6.26313 9.02259 6.46015 9.49821C6.65718 9.97383 6.94596 10.406 7.31001 10.77C7.40552 10.8622 7.4817 10.9726 7.53411 11.0946C7.58652 11.2166 7.6141 11.3478 7.61526 11.4806C7.61641 11.6134 7.59111 11.7451 7.54083 11.868C7.49055 11.9909 7.41629 12.1025 7.3224 12.1964C7.22851 12.2903 7.11685 12.3645 6.99396 12.4148C6.87106 12.4651 6.73938 12.4904 6.6066 12.4893C6.47382 12.4881 6.3426 12.4605 6.2206 12.4081C6.0986 12.3557 5.98825 12.2795 5.896 12.184C4.78583 11.0738 4.16215 9.56805 4.16215 7.998C4.16215 6.42795 4.78583 4.92221 5.896 3.812C6.08353 3.62453 6.33784 3.51921 6.603 3.51921C6.86817 3.51921 7.12248 3.62453 7.31001 3.812ZM14.269 3.812C15.3792 4.92221 16.0029 6.42795 16.0029 7.998C16.0029 9.56805 15.3792 11.0738 14.269 12.184C14.1762 12.2769 14.0659 12.3506 13.9446 12.4009C13.8233 12.4512 13.6932 12.4772 13.5619 12.4772C13.4305 12.4773 13.3004 12.4514 13.1791 12.4012C13.0577 12.351 12.9474 12.2773 12.8545 12.1845C12.7616 12.0917 12.6879 11.9814 12.6376 11.8601C12.5873 11.7388 12.5613 11.6087 12.5613 11.4774C12.5613 11.346 12.5871 11.2159 12.6373 11.0946C12.6875 10.9732 12.7612 10.8629 12.854 10.77C13.2181 10.406 13.5068 9.97383 13.7039 9.49821C13.9009 9.02259 14.0023 8.51282 14.0023 7.998C14.0023 7.48319 13.9009 6.97341 13.7039 6.49779C13.5068 6.02217 13.2181 5.59001 12.854 5.226C12.6665 5.03836 12.5612 4.78392 12.5613 4.51865C12.5614 4.25338 12.6669 3.99901 12.8545 3.8115C13.0421 3.62399 13.2966 3.5187 13.5619 3.5188C13.8271 3.51889 14.0815 3.62436 14.269 3.812ZM10.082 6.582C10.279 6.582 10.474 6.6208 10.656 6.69618C10.838 6.77156 11.0034 6.88205 11.1427 7.02134C11.282 7.16063 11.3924 7.32599 11.4678 7.50798C11.5432 7.68996 11.582 7.88502 11.582 8.082C11.582 8.27898 11.5432 8.47404 11.4678 8.65603C11.3924 8.83801 11.282 9.00337 11.1427 9.14266C11.0034 9.28195 10.838 9.39244 10.656 9.46782C10.474 9.5432 10.279 9.582 10.082 9.582C9.68418 9.582 9.30265 9.42397 9.02134 9.14266C8.74004 8.86136 8.582 8.47983 8.582 8.082C8.582 7.68418 8.74004 7.30264 9.02134 7.02134C9.30265 6.74004 9.68418 6.582 10.082 6.582Z" fill="#636363"/>
</svg>
