<svg width="24" height="24" viewBox="0 0 24 24" fill="none" xmlns="http://www.w3.org/2000/svg">
<g clip-path="url(#clip0_1_331)">
<path d="M22.5938 3.56128C22.5938 3.17297 22.2789 2.85815 21.8906 2.85815C21.5023 2.85815 21.1875 3.17297 21.1875 3.56128V4.68787C20.2786 5.69906 19.7812 6.99248 19.7812 8.3625V15.5144H18.375V11.9988C18.375 11.6105 18.0602 11.2957 17.6719 11.2957H17.1544C17.2719 10.3065 16.9353 8.99906 15.4364 7.42359C14.5071 6.44676 13.3737 5.63428 12.7031 5.21925V4.09786C12.9963 3.99445 13.2651 3.82608 13.4915 3.59972C13.7661 3.32512 13.7661 2.87995 13.4915 2.60536C13.2169 2.33081 12.7717 2.33081 12.4971 2.60536C12.3644 2.73815 12.1878 2.81128 12 2.81128C11.6123 2.81128 11.2969 2.49586 11.2969 2.10815C11.2969 1.72045 11.6123 1.40503 12 1.40503C12.3883 1.40503 12.7031 1.09022 12.7031 0.701904C12.7031 0.313592 12.3883 -0.0012207 12 -0.0012207C10.8369 -0.0012207 9.89062 0.945045 9.89062 2.10815C9.89062 3.0248 10.4785 3.80634 11.2969 4.09659V5.21901C10.623 5.6355 9.48408 6.45089 8.55562 7.42786C7.06125 9.00037 6.72666 10.3067 6.84502 11.2956H6.32812C5.93981 11.2956 5.625 11.6104 5.625 11.9987V15.5144H4.21875V8.3625C4.21875 6.99248 3.72141 5.69906 2.8125 4.68787V3.56128C2.8125 3.17297 2.49769 2.85815 2.10938 2.85815C1.72106 2.85815 1.40625 3.17297 1.40625 3.56128V4.68787C0.497344 5.69906 0 6.99248 0 8.3625V23.2957C0 23.684 0.314812 23.9988 0.703125 23.9988H23.2969C23.6852 23.9988 24 23.684 24 23.2957C24 22.6444 24 9.02151 24 8.3625C24 6.99248 23.5027 5.69906 22.5938 4.68787V3.56128ZM21.8906 6.06501C22.3479 6.73767 22.5938 7.53122 22.5938 8.3625V8.48315H21.1875V8.3625C21.1875 7.53122 21.4334 6.73772 21.8906 6.06501ZM21.1875 9.8894H22.5938V15.5144H21.1875V9.8894ZM14.1094 22.5925H9.89062V20.5228C9.89062 17.7221 14.1094 17.7165 14.1094 20.5229V22.5925ZM8.48438 20.5228V22.5925H7.03125V15.5144H16.9688V22.5925H15.5156V20.5229C15.5156 15.8539 8.48438 15.8445 8.48438 20.5228ZM16.9688 12.7019V14.1082H7.03125V12.7019H16.9688ZM9.57502 8.39658C10.4385 7.48795 11.4606 6.77644 11.9998 6.43889C12.5364 6.77526 13.5529 7.48397 14.4176 8.39283C15.4717 9.50081 15.9104 10.4749 15.7278 11.2956H8.27189C8.08842 10.4746 8.52469 9.50184 9.57502 8.39658ZM1.40625 15.5144V9.8894H2.8125V15.5144H1.40625ZM2.10938 6.06501C2.56664 6.73767 2.8125 7.53122 2.8125 8.3625V8.48315H1.40625V8.3625C1.40625 7.53122 1.65211 6.73772 2.10938 6.06501ZM1.40625 16.9207H5.625V22.5925H4.21875V19.03C4.21875 18.6417 3.90394 18.3269 3.51562 18.3269C3.12731 18.3269 2.8125 18.6417 2.8125 19.03V22.5925H1.40625V16.9207ZM22.5938 22.5925H21.1875V19.03C21.1875 18.6417 20.8727 18.3269 20.4844 18.3269C20.0961 18.3269 19.7812 18.6417 19.7812 19.03V22.5925H18.375V16.9207H22.5938V22.5925Z" fill="#636363"/>
</g>
<defs>
<clipPath id="clip0_1_331">
<rect width="24" height="24" fill="white" transform="translate(0 -0.0012207)"/>
</clipPath>
</defs>
</svg>
