<svg width="25" height="6" viewBox="0 0 25 6" fill="none" xmlns="http://www.w3.org/2000/svg">
<path d="M12.8 5.25C11.5573 5.25 10.55 4.24264 10.55 3C10.55 1.75736 11.5573 0.75 12.8 0.75C14.0426 0.75 15.05 1.75736 15.05 3C15.05 4.24264 14.0426 5.25 12.8 5.25ZM3.04999 5.25C1.80735 5.25 0.799988 4.24264 0.799988 3C0.799988 1.75736 1.80735 0.75 3.04999 0.75C4.29263 0.75 5.29999 1.75736 5.29999 3C5.29999 4.24264 4.29263 5.25 3.04999 5.25ZM22.55 5.25C21.3073 5.25 20.3 4.24264 20.3 3C20.3 1.75736 21.3073 0.75 22.55 0.75C23.7926 0.75 24.8 1.75736 24.8 3C24.8 4.24264 23.7926 5.25 22.55 5.25Z" fill="#636363"/>
</svg>
