<svg width="21" height="18" viewBox="0 0 21 18" fill="none" xmlns="http://www.w3.org/2000/svg">
<path d="M4.89995 0C6.56496 0.000223331 8.1754 0.59376 9.44232 1.67411C10.7092 2.75447 11.5497 4.25093 11.8129 5.895C12.4155 5.29318 13.1307 4.81604 13.9178 4.49088C14.7049 4.16571 15.5483 3.99891 16.3999 4H20.8999V6.5C20.8999 7.35359 20.7318 8.19883 20.4052 8.98744C20.0785 9.77606 19.5997 10.4926 18.9961 11.0962C18.3926 11.6998 17.676 12.1786 16.8874 12.5052C16.0988 12.8319 15.2535 13 14.3999 13H11.8999V18H9.89995V10H7.89995C6.04343 10 4.26296 9.2625 2.9502 7.94975C1.63745 6.63699 0.899948 4.85652 0.899948 3V0H4.89995ZM18.8999 6H16.3999C15.2065 6 14.0619 6.47411 13.218 7.31802C12.3741 8.16193 11.8999 9.30653 11.8999 10.5V11H14.3999C14.9909 11 15.5761 10.8836 16.122 10.6575C16.668 10.4313 17.1641 10.0998 17.5819 9.68198C17.9998 9.26412 18.3313 8.76804 18.5574 8.22208C18.7836 7.67611 18.8999 7.09095 18.8999 6.5V6ZM4.89995 2H2.89995V3C2.89995 4.32608 3.42673 5.59785 4.36441 6.53553C5.3021 7.47322 6.57387 8 7.89995 8H9.89995V7C9.89995 5.67392 9.37316 4.40215 8.43548 3.46447C7.4978 2.52678 6.22603 2 4.89995 2Z" fill="#636363"/>
</svg>
